<?xml version="1.0" encoding="utf-8"?>

<svg version="1.1" id="weggo-logo" xmlns="http://www.w3.org/2000/svg" xmlns:xlink="http://www.w3.org/1999/xlink" x="0px" y="0px"
	 viewBox="0 0 369.364 128.773" style="enable-background:new 0 0 369.364 128.773;" xml:space="preserve">
<g>
	<path d="M22.215,118.456c-3.393-3.328-5.646-6.413-8.701-19.191c-1.732-7.673-3.589-14.677-5.573-21.015
		C5.957,71.915-0.857,54.779,0.09,54.044c7.26-5.634,16.053-8.534,24.924-7.655c1.909,5.601,2.103,7.486,2.89,11.465
		c1.723,8.708,2.308,13.613,4.224,22.947c1.917,9.334,3.52,16.062,4.811,20.185c1.29,4.122,2.444,6.738,3.462,7.844
		c1.017,1.109,2.212,1.445,3.587,1.016c1.374-0.431,2.934-1.736,4.684-3.919c1.747-2.182,3.007-4.315,3.78-6.402
		c-0.143-0.458-1.138-5.573-2.983-15.35c-1.846-9.775-5.437-24.163-5.143-24.381c7.109-5.277,14.815-6.142,21.73-5.659
		c0.162,0.011,1.521,4.666,3.279,17.108c1.758,12.444,3.777,19.971,4.446,22.107c1.338,4.277,3.095,6.072,5.271,5.391
		c2.176-0.681,4.365-3.461,6.567-8.343c2.201-4.88,3.758-10.752,4.669-17.62c0.909-6.864,0.13-17.844-0.356-20.723
		c-0.486-2.88-1.056-5.343-3.69-11.302c-2.623-5.933-6.101-10.54-10.112-13.254s-8.319-4.528-11.236-5.688
		c-4.172-1.657-12.696-3.136-12.696-3.136C52.265,12.765,55.53,4.874,60.336,0c0,0,7.2,2.074,13.255,4.822
		c3.311,1.503,10.518,5.508,15.387,10.659c7.92,8.379,9.423,14.761,10.041,16.784c2.216,7.253,3.039,16.874,2.757,25.598
		s-1.598,17.457-3.812,25.777c-2.216,8.323-5.567,15.826-10.053,22.512c-4.488,6.686-9.593,10.925-15.32,12.718
		c-3.054,0.956-6.076,0.812-9.062-0.432c-2.989-1.243-5.536-3.756-7.643-7.54C41.714,128.406,28.172,124.3,22.215,118.456z"/>
	<path d="M101.926,89.713c-1.57-9.794,0.187-17.896,5.279-24.303c5.089-6.407,12.018-10.313,20.786-11.719
		c6.082-0.976,11.173-0.434,15.27,1.622c4.098,2.059,6.5,5.298,7.21,9.721c0.52,3.241-0.007,6.282-1.575,9.125
		c-1.57,2.846-3.668,5.166-6.296,6.965c-5.573,3.649-10.527,6.105-14.861,7.366l-2.905,0.83c1.704,5.075,4.729,7.263,9.074,6.566
		c1.896-0.304,3.921-1.053,6.08-2.251c2.157-1.196,5.381-3.556,8.105-5.992c0,0,3.008-2.586,7.208-7.2
		c1.062-1.167,1.732,4.456,1.149,5.987s-6.082,8.275-6.082,8.275c-0.398,0.55-1.375,1.66-2.93,3.326
		c-1.556,1.667-3.219,3.171-4.99,4.506c-1.772,1.339-4.09,2.662-6.958,3.972c-2.87,1.311-5.804,2.207-8.805,2.689
		c-6.715,1.077-12.221-0.045-16.522-3.366C105.863,102.511,103.117,97.139,101.926,89.713z M129.074,74.845
		c1.739-3.802,2.423-6.869,2.049-9.2c-0.373-2.329-1.232-3.388-2.574-3.173c-1.975,0.317-3.545,2.149-4.709,5.495
		c-1.165,3.347-1.409,7.883-0.735,13.608C125.344,80.895,127.333,78.651,129.074,74.845z"/>
	<path d="M186.729,95.541c-5.221,3.656-9.997,5.729-14.329,6.223c-4.331,0.494-8.146-0.823-11.44-3.949
		c-3.297-3.126-5.333-8.107-6.113-14.944c-1.042-9.139,0.58-16.974,4.868-23.502c4.287-6.528,9.889-10.187,16.805-10.975
		c3.338-0.38,7.217,0.104,11.638,1.45c4.755-2.07,10.274-3.466,16.554-4.182l2.026-0.231c0.487,0.75,0.889,2.495,1.201,5.237
		c0.314,2.742,0.431,8.185,0.353,16.325c-0.08,8.144-0.404,14.984-0.981,20.524c-1.23,11.815-4.145,21.385-8.743,28.716
		c-4.599,7.327-10.953,11.454-19.06,12.379c-3.976,0.454-7.313-0.053-10.016-1.515c-2.703-1.464-4.209-3.547-4.516-6.248
		c-0.309-2.704,0.09-5.023,1.198-6.961c1.108-1.938,2.825-3.643,5.154-5.116c3.975-2.549,8.946-4.847,14.915-6.895L186.729,95.541z
		 M176.475,120.02c1.51-0.172,3.152-1.125,4.929-2.856c1.773-1.733,3.103-4.381,3.985-7.942c-8.492,2.496-12.561,5.297-12.209,8.396
		C173.55,119.428,174.647,120.229,176.475,120.02z M183.106,57.426c-2.783,0.318-4.638,2.944-5.563,7.881
		c-0.928,4.937-1.071,10.188-0.437,15.751c0.634,5.564,2.263,8.197,4.885,7.897c1.113-0.126,2.681-0.868,4.699-2.226
		c-0.099-6.511-0.152-16.167-0.163-28.968C185.279,57.42,184.139,57.309,183.106,57.426z"/>
	<path d="M240.84,93.409c-5.598,3.045-10.578,4.566-14.936,4.57c-4.361,0.002-8.002-1.736-10.924-5.213
		c-2.923-3.479-4.385-8.656-4.39-15.538c-0.005-9.198,2.49-16.801,7.487-22.805c4.995-6.003,10.974-9.006,17.935-9.011
		c3.36-0.002,7.158,0.916,11.402,2.753c4.957-1.521,10.598-2.286,16.918-2.29l2.04-0.001c0.4,0.801,0.601,2.58,0.602,5.339
		c0.003,2.76-0.495,8.181-1.49,16.261c-0.995,8.082-2.091,14.841-3.288,20.282c-2.553,11.601-6.527,20.782-11.923,27.546
		c-5.396,6.763-12.174,10.149-20.334,10.153c-4.001,0.002-7.26-0.877-9.781-2.635c-2.521-1.759-3.783-3.999-3.783-6.717
		c-0.003-2.721,0.656-4.98,1.975-6.781c1.319-1.8,3.218-3.302,5.698-4.503c4.237-2.085,9.437-3.808,15.597-5.17L240.84,93.409z
		 M227.895,116.577c1.518,0,3.258-0.763,5.218-2.282c1.96-1.521,3.577-4.005,4.856-7.444c-8.72,1.525-13.077,3.848-13.076,6.968
		C225.054,115.659,226.053,116.578,227.895,116.577z M241.538,55.129c-2.801,0.001-4.94,2.403-6.416,7.203
		c-1.478,4.801-2.213,10.003-2.21,15.602c0.004,5.601,1.324,8.399,3.965,8.397c1.119-0.001,2.759-0.56,4.918-1.683
		c0.636-6.48,1.671-16.081,3.103-28.802C243.698,55.367,242.576,55.128,241.538,55.129z"/>
	<path d="M317.072,61.765c-0.396-5.03-1.498-8.877-3.303-11.542c-1.806-2.663-4.706-3.934-8.703-3.809
		c-1.679,0.052-3.469,0.39-5.371,1.008l-5.413-0.312c-8.476,0.266-15.217,3.538-20.221,9.818
		c-5.008,6.281-7.372,13.819-7.098,22.614c0.226,7.196,2.2,12.718,5.922,16.562c3.723,3.846,8.702,5.671,14.939,5.476
		c7.754-0.243,14.14-3.364,19.156-9.364c5.014-5.999,8.268-13.265,9.763-21.797c9.508-3.25,14.563-10.566,17.498-14.303
		c0.444-0.565-1.916-2.1-2.155-1.864C326.548,59.697,324.827,60.946,317.072,61.765z M303.424,84.043
		c-2.654,3.445-5.3,5.209-7.939,5.291c-3.76,0.118-5.753-3.542-5.985-10.978c-0.137-4.318,0.347-8.674,1.451-13.071
		c1.102-4.396,1.825-6.264,3.14-7.746c0.801-0.758,0.737-0.89,2.273-1.489c-0.194,1.447-0.27,2.85-0.228,4.21
		c0.245,7.837,4.446,11.626,12.603,11.371C307.848,76.46,306.077,80.598,303.424,84.043z M311.034,61.688
		c0,0-3.681,0.041-5.686-3.455c-1.485-2.589-0.774-5.161-0.318-5.544s2.414-0.906,4.334,1.38
		C311.283,56.355,311.034,61.688,311.034,61.688z"/>

		<path d="M288.707,123.052v-13.113h4.824c0.905,0,1.677,0.084,2.312,0.252s1.155,0.405,1.558,0.711
			c0.401,0.307,0.694,0.679,0.877,1.116c0.183,0.438,0.274,0.927,0.274,1.467c0,0.294-0.042,0.578-0.126,0.851
			c-0.084,0.273-0.216,0.53-0.396,0.77c-0.181,0.24-0.411,0.458-0.693,0.652c-0.282,0.195-0.621,0.365-1.017,0.509
			c0.863,0.21,1.503,0.551,1.917,1.021c0.414,0.472,0.621,1.075,0.621,1.813c0,0.559-0.108,1.077-0.324,1.558
			c-0.216,0.479-0.533,0.898-0.949,1.255c-0.418,0.357-0.932,0.636-1.544,0.837s-1.312,0.302-2.097,0.302H288.707z M291.749,115.456
			h1.584c0.336,0,0.639-0.024,0.909-0.072c0.27-0.048,0.499-0.132,0.688-0.252c0.188-0.12,0.333-0.285,0.432-0.495
			c0.1-0.21,0.148-0.474,0.148-0.792c0-0.312-0.039-0.571-0.117-0.778s-0.197-0.374-0.359-0.5s-0.368-0.216-0.617-0.27
			s-0.544-0.081-0.886-0.081h-1.782V115.456z M291.749,117.49v3.267h2.142c0.402,0,0.73-0.051,0.985-0.153
			c0.256-0.102,0.455-0.233,0.599-0.396c0.145-0.162,0.243-0.345,0.297-0.549c0.055-0.204,0.081-0.411,0.081-0.621
			c0-0.24-0.031-0.456-0.094-0.648c-0.063-0.191-0.171-0.354-0.324-0.486c-0.153-0.132-0.355-0.233-0.607-0.306
			s-0.57-0.107-0.954-0.107H291.749z"/>
		<path d="M309.138,109.938v2.34h-5.383v3.061h4.122v2.25h-4.122v3.123h5.383v2.34h-8.442v-13.113H309.138z"/>
		<path d="M320.566,109.938v2.412h-3.689v10.701h-3.042v-10.701h-3.69v-2.412H320.566z"/>
		<path d="M332.681,123.052h-2.358c-0.264,0-0.481-0.062-0.652-0.185s-0.289-0.28-0.355-0.473l-0.774-2.286h-4.985l-0.774,2.286
			c-0.06,0.168-0.177,0.319-0.351,0.455c-0.174,0.135-0.387,0.202-0.64,0.202h-2.376l5.076-13.113h3.114L332.681,123.052z
			 M324.257,118.039h3.582l-1.206-3.591c-0.078-0.229-0.17-0.497-0.274-0.806c-0.105-0.31-0.209-0.644-0.311-1.004
			c-0.097,0.366-0.195,0.705-0.298,1.017c-0.102,0.312-0.197,0.583-0.287,0.811L324.257,118.039z"/>
	
</g>
</svg>
