<?xml version="1.0" encoding="UTF-8"?>
<svg id="weggo-logo" viewBox="0 0 359 144" version="1.1" xmlns="http://www.w3.org/2000/svg" xmlns:xlink="http://www.w3.org/1999/xlink">
    <!-- Generator: Sketch 51.3 (57544) - http://www.bohemiancoding.com/sketch -->
    <title>weggo</title>
    <desc>Created with Sketch.</desc>
    <defs>
        <linearGradient x1="50%" y1="0%" x2="50%" y2="100%" id="linearGradient-1">
            <stop stop-color="#B4EC51" offset="0%"></stop>
            <stop stop-color="#429321" offset="100%"></stop>
        </linearGradient>
        <linearGradient x1="50%" y1="114.585647%" x2="74.1308554%" y2="-80.609282%" id="linearGradient-2">
            <stop stop-color="#B4EC51" offset="0%"></stop>
            <stop stop-color="#58A42A" offset="86.7119762%"></stop>
            <stop stop-color="#429321" offset="100%"></stop>
        </linearGradient>
        <linearGradient x1="50%" y1="114.585647%" x2="28.51803%" y2="-60.2311423%" id="linearGradient-3">
            <stop stop-color="#B4EC51" offset="0%"></stop>
            <stop stop-color="#58A42A" offset="86.7119762%"></stop>
            <stop stop-color="#429321" offset="100%"></stop>
        </linearGradient>
        <linearGradient x1="50%" y1="114.585647%" x2="108.37076%" y2="-31.4677606%" id="linearGradient-4">
            <stop stop-color="#B4EC51" offset="0%"></stop>
            <stop stop-color="#58A42A" offset="86.7119762%"></stop>
            <stop stop-color="#429321" offset="100%"></stop>
        </linearGradient>
    </defs>
    <g id="Page-1" stroke="none" stroke-width="1" fill="none" fill-rule="evenodd">
        <g id="weggo" transform="translate(-6.000000, -1.000000)" fill-rule="nonzero">
            <path d="M7.37059508,134.945529 C10.2903781,138.358194 30.8826273,137.594107 33.5613549,131.414278 C28.3423397,79.9902864 33.8416351,54.8961605 48.3465002,29.3011715 C48.8887199,28.3145895 49.9129133,28.5316716 49.9691263,29.7271568 C50.834541,50.1574124 50.9931268,95.7766906 56.358906,104.728176 C63.6006563,107.256484 78.5737953,103.281418 81.0660541,99.588748 C82.028319,98.1630024 82.829166,57.0439516 94.0701278,33.3562108 C94.0732963,33.3199945 93.9988109,39.9692978 93.8466715,53.3041208 C93.8466715,84.2108036 96.6817671,102.725448 112.119875,112.111097 C114.48308,113.422791 117.804615,114.687968 122.055625,114.687968 C129.95421,114.687968 137.116898,110.276123 140.656691,103.182104 C143.540901,97.6690878 144.843486,92.7635649 145.815822,85.957218 C146.241807,82.9753208 146.776795,77.4375117 143.25991,77.4375117 C139.925535,77.4375117 139.925535,80.4194089 139.426042,82.9753208 C138.846243,85.9421551 138.574071,88.5131299 136.444145,93.6249536 C134.314218,98.7367774 131.758306,100.713179 126.82574,100.713179 C122.674592,100.713179 121.177516,97.7642529 120.090043,95.9430805 C115.30697,88.6508935 114.924418,71.8975728 114.924418,57.9139233 L116.074996,21.9223391 C116.074996,18.9448721 114.832124,15.3813346 110.238196,12.7536016 C107.153832,10.9782652 99.3524735,7.63589927 94.5735061,7.63589927 C90.1417253,7.63589927 87.4961715,10.2161856 85.3430338,13.6474108 C81.2731543,20.1331426 75.4694101,29.7271568 67.7505742,73.6036439 C66.5825535,59.9721139 67.7338585,34.5710358 67.7505742,22.4378665 C67.7505742,18.7708145 66.8533554,13.526765 59.0732789,10.1290209 C55.2933494,8.56062819 50.1727143,7.00982113 46.9486441,7.7226619 C42.5881713,8.68676087 5.35093879,57.9625101 7.37059508,134.945529 Z" id="w" fill="url(#linearGradient-1)" transform="translate(76.708095, 72.251746) rotate(174.000000) translate(-76.708095, -72.251746) "></path>
            <path d="M136.899324,103.21964 C135.329324,93.4256404 137.086324,85.3236404 142.178324,78.9166404 C147.267324,72.5096404 154.196324,68.6036404 162.964324,67.1976404 C169.046324,66.2216404 174.137324,66.7636404 178.234324,68.8196404 C182.332324,70.8786404 184.734324,74.1176404 185.444324,78.5406404 C185.964324,81.7816404 185.437324,84.8226404 183.869324,87.6656404 C182.299324,90.5116404 180.201324,92.8316404 177.573324,94.6306404 C172.000324,98.2796404 167.046324,100.73564 162.712324,101.99664 L159.807324,102.82664 C161.511324,107.90164 164.536324,110.08964 168.881324,109.39264 C170.777324,109.08864 172.802324,108.33964 174.961324,107.14164 C177.118324,105.94564 180.342324,103.58564 183.066324,101.14964 C183.066324,101.14964 186.074324,98.5636404 190.274324,93.9496404 C191.336324,92.7826404 192.006324,98.4056404 191.423324,99.9366404 C190.840324,101.46764 185.341324,108.21164 185.341324,108.21164 C184.943324,108.76164 183.966324,109.87164 182.411324,111.53764 C180.855324,113.20464 179.192324,114.70864 177.421324,116.04364 C175.649324,117.38264 173.331324,118.70564 170.463324,120.01564 C167.593324,121.32664 164.659324,122.22264 161.658324,122.70464 C154.943324,123.78164 149.437324,122.65964 145.136324,119.33864 C140.836324,116.01764 138.090324,110.64564 136.899324,103.21964 Z M164.047324,88.3516404 C165.786324,84.5496404 166.470324,81.4826404 166.096324,79.1516404 C165.723324,76.8226404 164.864324,75.7636404 163.522324,75.9786404 C161.547324,76.2956404 159.977324,78.1276404 158.813324,81.4736404 C157.648324,84.8206404 157.404324,89.3566404 158.078324,95.0816404 C160.317324,94.4016404 162.306324,92.1576404 164.047324,88.3516404 Z" id="Shape" fill="url(#linearGradient-2)" transform="translate(163.991468, 94.913559) rotate(1.000000) translate(-163.991468, -94.913559) "></path>
            <path d="M218.729,111.541 C213.508,115.197 208.732,117.27 204.4,117.764 C200.069,118.258 196.254,116.941 192.96,113.815 C189.663,110.689 187.627,105.708 186.847,98.871 C185.805,89.732 187.427,81.897 191.715,75.369 C196.002,68.841 201.604,65.182 208.52,64.394 C211.858,64.014 215.737,64.498 220.158,65.844 C224.913,63.774 230.432,62.378 236.712,61.662 L238.738,61.431 C239.225,62.181 239.627,63.926 239.939,66.668 C240.253,69.41 240.37,74.853 240.292,82.993 C240.212,91.137 239.888,97.977 239.311,103.517 C238.081,115.332 235.166,124.902 230.568,132.233 C225.969,139.56 219.615,143.687 211.508,144.612 C207.532,145.066 204.195,144.559 201.492,143.097 C198.789,141.633 197.283,139.55 196.976,136.849 C196.667,134.145 197.066,131.826 198.174,129.888 C199.282,127.95 200.999,126.245 203.328,124.772 C207.303,122.223 212.274,119.925 218.243,117.877 L218.729,111.541 Z M208.475,136.02 C209.985,135.848 211.627,134.895 213.404,133.164 C215.177,131.431 216.507,128.783 217.389,125.222 C208.897,127.718 204.828,130.519 205.18,133.618 C205.55,135.428 206.647,136.229 208.475,136.02 Z M215.106,73.426 C212.323,73.744 210.468,76.37 209.543,81.307 C208.615,86.244 208.472,91.495 209.106,97.058 C209.74,102.622 211.369,105.255 213.991,104.955 C215.104,104.829 216.672,104.087 218.69,102.729 C218.591,96.218 218.538,86.562 218.527,73.761 C217.279,73.42 216.139,73.309 215.106,73.426 Z" id="Shape" fill="url(#linearGradient-3)" transform="translate(213.428361, 103.101970) rotate(3.000000) translate(-213.428361, -103.101970) "></path>
            <path d="M272.84,111.409 C267.242,114.454 262.262,115.975 257.904,115.979 C253.543,115.981 249.902,114.243 246.98,110.766 C244.057,107.287 242.595,102.11 242.59,95.228 C242.585,86.03 245.08,78.427 250.077,72.423 C255.072,66.42 261.051,63.417 268.012,63.412 C271.372,63.41 275.17,64.328 279.414,66.165 C284.371,64.644 290.012,63.879 296.332,63.875 L298.372,63.874 C298.772,64.675 298.973,66.454 298.974,69.213 C298.977,71.973 298.479,77.394 297.484,85.474 C296.489,93.556 295.393,100.315 294.196,105.756 C291.643,117.357 287.669,126.538 282.273,133.302 C276.877,140.065 270.099,143.451 261.939,143.455 C257.938,143.457 254.679,142.578 252.158,140.82 C249.637,139.061 248.375,136.821 248.375,134.103 C248.372,131.382 249.031,129.123 250.35,127.322 C251.669,125.522 253.568,124.02 256.048,122.819 C260.285,120.734 265.485,119.011 271.645,117.649 L272.84,111.409 Z M259.895,134.577 C261.413,134.577 263.153,133.814 265.113,132.295 C267.073,130.774 268.69,128.29 269.969,124.851 C261.249,126.376 256.892,128.699 256.893,131.819 C257.054,133.659 258.053,134.578 259.895,134.577 Z M273.538,73.129 C270.737,73.13 268.598,75.532 267.122,80.332 C265.644,85.133 264.909,90.335 264.912,95.934 C264.916,101.535 266.236,104.333 268.877,104.331 C269.996,104.33 271.636,103.771 273.795,102.648 C274.431,96.168 275.466,86.567 276.898,73.846 C275.698,73.367 274.576,73.128 273.538,73.129 Z" id="Shape" fill="url(#linearGradient-4)" transform="translate(270.782003, 103.433500) rotate(2.000000) translate(-270.782003, -103.433500) "></path>
            <path d="M349,82 C348.604,76.97 347.574,72.888 345.769,70.223 C343.963,67.56 341.063,66.289 337.066,66.414 C335.387,66.466 333.5,66.5 331.695,67.422 C330.898333,67.1406667 329.030333,67 326.091,67 C319,67 311.065,70.648 306.061,76.928 C301.053,83.209 298.689,90.747 298.963,99.542 C299.189,106.738 301.163,112.26 304.885,116.104 C308.608,119.95 313.587,121.775 319.824,121.58 C327.578,121.337 333.964,118.216 338.98,112.216 C343.994,106.217 347.505,97.532 349,89 C360,85.285 363.073643,80.0439291 364,78.5 C365.5,76 363,74 361,76 C359,78 356.5,80.5 349,82 Z M335.424,104.043 C332.77,107.488 330.124,109.252 327.485,109.334 C323.725,109.452 321.732,105.792 321.5,98.356 C321.363,94.038 321.847,89.682 322.951,85.285 C324.053,80.889 324.776,79.021 326.091,77.539 C326.892,76.781 327.464,76.099 329,75.5 C330.5,83 333.5,86.5 341.364,89 C340.473,93.829 338.077,100.598 335.424,104.043 Z M343.034,81.688 C343.034,81.688 339.353,81.729 337.348,78.233 C335.863,75.644 336.574,73.072 337.03,72.689 C337.486,72.306 339.444,71.783 341.364,74.069 C343.283,76.355 343.034,81.688 343.034,81.688 Z" id="Shape" fill="url(#linearGradient-4)"></path>
        </g>
    </g>
</svg>
